<svg xmlns="http://www.w3.org/2000/svg" xmlns:xlink="http://www.w3.org/1999/xlink" version="1.1" class="marks" width="480" height="142" viewBox="0 0 480 142"><rect width="480" height="142" fill="white"/><g fill="none" stroke-miterlimit="10" transform="translate(74,5)"><g class="mark-group role-frame root" role="graphics-object" aria-roledescription="group mark container"><g transform="translate(0,0)"><path class="background" aria-hidden="true" d="M0.5,0.5h400v100h-400Z" stroke="#ddd"/><g><g class="mark-group role-axis" aria-hidden="true"><g transform="translate(0.5,100.5)"><path class="background" aria-hidden="true" d="M0,0h0v0h0Z" pointer-events="none"/><g><g class="mark-rule role-axis-grid" pointer-events="none"><line transform="translate(0,0)" x2="0" y2="-100" stroke="#ddd" stroke-width="1" opacity="1"/><line transform="translate(50,0)" x2="0" y2="-100" stroke="#ddd" stroke-width="1" opacity="1"/><line transform="translate(100,0)" x2="0" y2="-100" stroke="#ddd" stroke-width="1" opacity="1"/><line transform="translate(150,0)" x2="0" y2="-100" stroke="#ddd" stroke-width="1" opacity="1"/><line transform="translate(200,0)" x2="0" y2="-100" stroke="#ddd" stroke-width="1" opacity="1"/><line transform="translate(250,0)" x2="0" y2="-100" stroke="#ddd" stroke-width="1" opacity="1"/><line transform="translate(300,0)" x2="0" y2="-100" stroke="#ddd" stroke-width="1" opacity="1"/><line transform="translate(350,0)" x2="0" y2="-100" stroke="#ddd" stroke-width="1" opacity="1"/><line transform="translate(400,0)" x2="0" y2="-100" stroke="#ddd" stroke-width="1" opacity="1"/></g></g><path class="foreground" aria-hidden="true" d="" pointer-events="none" display="none"/></g></g><g class="mark-group role-axis" role="graphics-symbol" aria-roledescription="axis" aria-label="X-axis titled 'Children' for a linear scale with values from 0 to 16"><g transform="translate(0.5,100.5)"><path class="background" aria-hidden="true" d="M0,0h0v0h0Z" pointer-events="none"/><g><g class="mark-rule role-axis-tick" pointer-events="none"><line transform="translate(0,0)" x2="0" y2="5" stroke="#888" stroke-width="1" opacity="1"/><line transform="translate(50,0)" x2="0" y2="5" stroke="#888" stroke-width="1" opacity="1"/><line transform="translate(100,0)" x2="0" y2="5" stroke="#888" stroke-width="1" opacity="1"/><line transform="translate(150,0)" x2="0" y2="5" stroke="#888" stroke-width="1" opacity="1"/><line transform="translate(200,0)" x2="0" y2="5" stroke="#888" stroke-width="1" opacity="1"/><line transform="translate(250,0)" x2="0" y2="5" stroke="#888" stroke-width="1" opacity="1"/><line transform="translate(300,0)" x2="0" y2="5" stroke="#888" stroke-width="1" opacity="1"/><line transform="translate(350,0)" x2="0" y2="5" stroke="#888" stroke-width="1" opacity="1"/><line transform="translate(400,0)" x2="0" y2="5" stroke="#888" stroke-width="1" opacity="1"/></g><g class="mark-text role-axis-label" pointer-events="none"><text text-anchor="start" transform="translate(0,15)" font-family="sans-serif" font-size="10px" fill="#000" opacity="1">0</text><text text-anchor="middle" transform="translate(50,15)" font-family="sans-serif" font-size="10px" fill="#000" opacity="1">2</text><text text-anchor="middle" transform="translate(100,15)" font-family="sans-serif" font-size="10px" fill="#000" opacity="1">4</text><text text-anchor="middle" transform="translate(150,15)" font-family="sans-serif" font-size="10px" fill="#000" opacity="1">6</text><text text-anchor="middle" transform="translate(200,15)" font-family="sans-serif" font-size="10px" fill="#000" opacity="1">8</text><text text-anchor="middle" transform="translate(250,15)" font-family="sans-serif" font-size="10px" fill="#000" opacity="1">10</text><text text-anchor="middle" transform="translate(300,15)" font-family="sans-serif" font-size="10px" fill="#000" opacity="1">12</text><text text-anchor="middle" transform="translate(350,15)" font-family="sans-serif" font-size="10px" fill="#000" opacity="1">14</text><text text-anchor="end" transform="translate(400,15)" font-family="sans-serif" font-size="10px" fill="#000" opacity="1">16</text></g><g class="mark-rule role-axis-domain" pointer-events="none"><line transform="translate(0,0)" x2="400" y2="0" stroke="#888" stroke-width="1" opacity="1"/></g><g class="mark-text role-axis-title" pointer-events="none"><text text-anchor="middle" transform="translate(200,30)" font-family="sans-serif" font-size="11px" font-weight="bold" fill="#000" opacity="1">Children</text></g></g><path class="foreground" aria-hidden="true" d="" pointer-events="none" display="none"/></g></g><g class="mark-group role-axis" role="graphics-symbol" aria-roledescription="axis" aria-label="Y-axis titled 'Contraception' for a discrete scale with 3 values: Long term, No use, Short term"><g transform="translate(0.5,0.5)"><path class="background" aria-hidden="true" d="M0,0h0v0h0Z" pointer-events="none"/><g><g class="mark-rule role-axis-tick" pointer-events="none"><line transform="translate(0,16)" x2="-5" y2="0" stroke="#888" stroke-width="1" opacity="1"/><line transform="translate(0,50)" x2="-5" y2="0" stroke="#888" stroke-width="1" opacity="1"/><line transform="translate(0,83)" x2="-5" y2="0" stroke="#888" stroke-width="1" opacity="1"/></g><g class="mark-text role-axis-label" pointer-events="none"><text text-anchor="end" transform="translate(-7,19.166666666666668)" font-family="sans-serif" font-size="10px" fill="#000" opacity="1">Long term</text><text text-anchor="end" transform="translate(-7,52.5)" font-family="sans-serif" font-size="10px" fill="#000" opacity="1">No use</text><text text-anchor="end" transform="translate(-7,85.83333333333334)" font-family="sans-serif" font-size="10px" fill="#000" opacity="1">Short term</text></g><g class="mark-rule role-axis-domain" pointer-events="none"><line transform="translate(0,0)" x2="0" y2="100" stroke="#888" stroke-width="1" opacity="1"/></g><g class="mark-text role-axis-title" pointer-events="none"><text text-anchor="middle" transform="translate(-57.6796875,50) rotate(-90) translate(0,-2)" font-family="sans-serif" font-size="11px" font-weight="bold" fill="#000" opacity="1">Contraception</text></g></g><path class="foreground" aria-hidden="true" d="" pointer-events="none" display="none"/></g></g><g class="mark-rule role-mark layer_0_marks" aria-hidden="true"><line transform="translate(0,50)" x2="25" y2="0" stroke="black"/><line transform="translate(25,16.666666666666668)" x2="25" y2="0" stroke="black"/><line transform="translate(0,83.33333333333334)" x2="50" y2="0" stroke="black"/></g><g class="mark-rule role-mark layer_1_marks" aria-hidden="true"><line transform="translate(100,50)" x2="200" y2="0" stroke="black"/><line transform="translate(125,16.666666666666668)" x2="200" y2="0" stroke="black"/><line transform="translate(100,83.33333333333334)" x2="300" y2="0" stroke="black"/></g><g class="mark-rect role-mark layer_2_marks" role="graphics-object" aria-roledescription="rect mark container"><path aria-label="Children: 1; upper_box_children: 4; contraceptive_method: No use; Contraception: No use; Max of Children: 12; Q3 of Children: 4; Median of Children: 2; Q1 of Children: 1; Min of Children: 0" role="graphics-symbol" aria-roledescription="box" d="M25,43h75v14h-75Z" fill="#f58518"/><path aria-label="Children: 2; upper_box_children: 5; contraceptive_method: Long term; Contraception: Long term; Max of Children: 13; Q3 of Children: 5; Median of Children: 3; Q1 of Children: 2; Min of Children: 1" role="graphics-symbol" aria-roledescription="box" d="M50,9.666666666666668h75v14h-75Z" fill="#4c78a8"/><path aria-label="Children: 2; upper_box_children: 4; contraceptive_method: Short term; Contraception: Short term; Max of Children: 16; Q3 of Children: 4; Median of Children: 3; Q1 of Children: 2; Min of Children: 0" role="graphics-symbol" aria-roledescription="box" d="M50,76.33333333333334h50v14h-50Z" fill="#e45756"/></g><g class="mark-rect role-mark layer_3_marks" aria-hidden="true"><path d="M49.5,43h1v14h-1Z" fill="white" opacity="0.7"/><path d="M74.5,9.666666666666668h1v14h-1Z" fill="white" opacity="0.7"/><path d="M74.5,76.33333333333334h1v14h-1Z" fill="white" opacity="0.7"/></g></g><path class="foreground" aria-hidden="true" d="" display="none"/></g></g></g></svg>