<svg xmlns="http://www.w3.org/2000/svg" xmlns:xlink="http://www.w3.org/1999/xlink" version="1.1" class="marks" width="455" height="257" viewBox="0 0 455 257"><rect width="455" height="257" fill="white"/><g fill="none" stroke-miterlimit="10" transform="translate(94,23)"><g class="mark-group role-frame root" role="graphics-object" aria-roledescription="group mark container"><g transform="translate(0,0)"><path class="background" aria-hidden="true" d="M0,0h0v0h0Z"/><g><g class="mark-group role-scope concat_0_group" role="graphics-object" aria-roledescription="group mark container"><g transform="translate(0,0)"><path class="background" aria-hidden="true" d="M0,0h140v140h-140Z" stroke="#ddd" stroke-width="0"/><g><g class="mark-group role-axis" role="graphics-symbol" aria-roledescription="axis" aria-label="X-axis for a discrete scale with 7 values: media_exposure, living_standard, work, religion, children, spouse_education, education"><g transform="translate(0.5,140.5)"><path class="background" aria-hidden="true" d="M0,0h0v0h0Z" pointer-events="none"/><g><g class="mark-rule role-axis-tick" pointer-events="none"><line transform="translate(10,0)" x2="0" y2="5" stroke="#888" stroke-width="1" opacity="1"/><line transform="translate(30,0)" x2="0" y2="5" stroke="#888" stroke-width="1" opacity="1"/><line transform="translate(50,0)" x2="0" y2="5" stroke="#888" stroke-width="1" opacity="1"/><line transform="translate(70,0)" x2="0" y2="5" stroke="#888" stroke-width="1" opacity="1"/><line transform="translate(90,0)" x2="0" y2="5" stroke="#888" stroke-width="1" opacity="1"/><line transform="translate(110,0)" x2="0" y2="5" stroke="#888" stroke-width="1" opacity="1"/><line transform="translate(130,0)" x2="0" y2="5" stroke="#888" stroke-width="1" opacity="1"/></g><g class="mark-text role-axis-label" pointer-events="none"><text text-anchor="end" transform="translate(10,7) rotate(270) translate(0,3)" font-family="sans-serif" font-size="10px" fill="#000" opacity="1">media_exposure</text><text text-anchor="end" transform="translate(30,7) rotate(270) translate(0,3)" font-family="sans-serif" font-size="10px" fill="#000" opacity="1">living_standard</text><text text-anchor="end" transform="translate(50,7) rotate(270) translate(0,3)" font-family="sans-serif" font-size="10px" fill="#000" opacity="1">work</text><text text-anchor="end" transform="translate(70,7) rotate(270) translate(0,3)" font-family="sans-serif" font-size="10px" fill="#000" opacity="1">religion</text><text text-anchor="end" transform="translate(90,7) rotate(270) translate(0,3)" font-family="sans-serif" font-size="10px" fill="#000" opacity="1">children</text><text text-anchor="end" transform="translate(110,7) rotate(270) translate(0,3)" font-family="sans-serif" font-size="10px" fill="#000" opacity="1">spouse_education</text><text text-anchor="end" transform="translate(130,7) rotate(270) translate(0,3)" font-family="sans-serif" font-size="10px" fill="#000" opacity="1">education</text></g><g class="mark-rule role-axis-domain" pointer-events="none"><line transform="translate(0,0)" x2="140" y2="0" stroke="#888" stroke-width="1" opacity="1"/></g></g><path class="foreground" aria-hidden="true" d="" pointer-events="none" display="none"/></g></g><g class="mark-group role-axis" role="graphics-symbol" aria-roledescription="axis" aria-label="Y-axis for a discrete scale with 7 values: living_standard, work, religion, children, spouse_education, education, age"><g transform="translate(0.5,0.5)"><path class="background" aria-hidden="true" d="M0,0h0v0h0Z" pointer-events="none"/><g><g class="mark-rule role-axis-tick" pointer-events="none"><line transform="translate(0,10)" x2="-5" y2="0" stroke="#888" stroke-width="1" opacity="1"/><line transform="translate(0,30)" x2="-5" y2="0" stroke="#888" stroke-width="1" opacity="1"/><line transform="translate(0,50)" x2="-5" y2="0" stroke="#888" stroke-width="1" opacity="1"/><line transform="translate(0,70)" x2="-5" y2="0" stroke="#888" stroke-width="1" opacity="1"/><line transform="translate(0,90)" x2="-5" y2="0" stroke="#888" stroke-width="1" opacity="1"/><line transform="translate(0,110)" x2="-5" y2="0" stroke="#888" stroke-width="1" opacity="1"/><line transform="translate(0,130)" x2="-5" y2="0" stroke="#888" stroke-width="1" opacity="1"/></g><g class="mark-text role-axis-label" pointer-events="none"><text text-anchor="end" transform="translate(-7,13)" font-family="sans-serif" font-size="10px" fill="#000" opacity="1">living_standard</text><text text-anchor="end" transform="translate(-7,33)" font-family="sans-serif" font-size="10px" fill="#000" opacity="1">work</text><text text-anchor="end" transform="translate(-7,53)" font-family="sans-serif" font-size="10px" fill="#000" opacity="1">religion</text><text text-anchor="end" transform="translate(-7,73)" font-family="sans-serif" font-size="10px" fill="#000" opacity="1">children</text><text text-anchor="end" transform="translate(-7,93)" font-family="sans-serif" font-size="10px" fill="#000" opacity="1">spouse_education</text><text text-anchor="end" transform="translate(-7,113)" font-family="sans-serif" font-size="10px" fill="#000" opacity="1">education</text><text text-anchor="end" transform="translate(-7,133)" font-family="sans-serif" font-size="10px" fill="#000" opacity="1">age</text></g><g class="mark-rule role-axis-domain" pointer-events="none"><line transform="translate(0,0)" x2="0" y2="140" stroke="#888" stroke-width="1" opacity="1"/></g></g><path class="foreground" aria-hidden="true" d="" pointer-events="none" display="none"/></g></g><g class="mark-symbol role-mark concat_0_marks" role="graphics-object" aria-roledescription="symbol mark container"><path aria-label="value: 0.0018284974536; abs_value: 0.0018284974536; index: media_exposure; variable: work" role="graphics-symbol" aria-roledescription="circle" transform="translate(10,30)" d="M0.406,0A0.406,0.406,0,1,1,-0.406,0A0.406,0.406,0,1,1,0.406,0" fill="rgb(242, 240, 235)" stroke-width="2" opacity="0.9"/><path aria-label="value: −0.0765047918676; abs_value: 0.0765047918676; index: living_standard; variable: work" role="graphics-symbol" aria-roledescription="circle" transform="translate(30,30)" d="M2.628,0A2.628,2.628,0,1,1,-2.628,0A2.628,2.628,0,1,1,2.628,0" fill="rgb(230, 236, 237)" stroke-width="2" opacity="0.9"/><path aria-label="value: −0.178447019165; abs_value: 0.178447019165; index: religion; variable: spouse_education" role="graphics-symbol" aria-roledescription="circle" transform="translate(70,90)" d="M4.013,0A4.013,4.013,0,1,1,-4.013,0A4.013,4.013,0,1,1,4.013,0" fill="rgb(213, 230, 239)" stroke-width="2" opacity="0.9"/><path aria-label="value: −0.187513483788; abs_value: 0.187513483788; index: children; variable: spouse_education" role="graphics-symbol" aria-roledescription="circle" transform="translate(90,90)" d="M4.114,0A4.114,4.114,0,1,1,-4.114,0A4.114,4.114,0,1,1,4.114,0" fill="rgb(212, 230, 239)" stroke-width="2" opacity="0.9"/><path aria-label="value: −0.288691483962; abs_value: 0.288691483962; index: media_exposure; variable: spouse_education" role="graphics-symbol" aria-roledescription="circle" transform="translate(10,90)" d="M5.104,0A5.104,5.104,0,1,1,-5.104,0A5.104,5.104,0,1,1,5.104,0" fill="rgb(186, 217, 233)" stroke-width="2" opacity="0.9"/><path aria-label="value: 0.357489957192; abs_value: 0.357489957192; index: living_standard; variable: spouse_education" role="graphics-symbol" aria-roledescription="circle" transform="translate(30,90)" d="M5.68,0A5.68,5.68,0,1,1,-5.68,0A5.68,5.68,0,1,1,5.68,0" fill="rgb(251, 198, 131)" stroke-width="2" opacity="0.9"/><path aria-label="value: 0.00109875012331; abs_value: 0.00109875012331; index: work; variable: spouse_education" role="graphics-symbol" aria-roledescription="circle" transform="translate(50,90)" d="M0.315,0A0.315,0.315,0,1,1,-0.315,0A0.315,0.315,0,1,1,0.315,0" fill="rgb(242, 240, 235)" stroke-width="2" opacity="0.9"/><path aria-label="value: 0.0602434875547; abs_value: 0.0602434875547; index: media_exposure; variable: religion" role="graphics-symbol" aria-roledescription="circle" transform="translate(10,50)" d="M2.332,0A2.332,2.332,0,1,1,-2.332,0A2.332,2.332,0,1,1,2.332,0" fill="rgb(245, 235, 220)" stroke-width="2" opacity="0.9"/><path aria-label="value: −0.196308122859; abs_value: 0.196308122859; index: living_standard; variable: religion" role="graphics-symbol" aria-roledescription="circle" transform="translate(30,50)" d="M4.209,0A4.209,4.209,0,1,1,-4.209,0A4.209,4.209,0,1,1,4.209,0" fill="rgb(211, 229, 239)" stroke-width="2" opacity="0.9"/><path aria-label="value: 0.0698372190017; abs_value: 0.0698372190017; index: work; variable: religion" role="graphics-symbol" aria-roledescription="circle" transform="translate(50,50)" d="M2.511,0A2.511,2.511,0,1,1,-2.511,0A2.511,2.511,0,1,1,2.511,0" fill="rgb(245, 234, 218)" stroke-width="2" opacity="0.9"/><path aria-label="value: −0.251359150963; abs_value: 0.251359150963; index: media_exposure; variable: living_standard" role="graphics-symbol" aria-roledescription="circle" transform="translate(10,10)" d="M4.763,0A4.763,4.763,0,1,1,-4.763,0A4.763,4.763,0,1,1,4.763,0" fill="rgb(196, 222, 235)" stroke-width="2" opacity="0.9"/><path aria-label="value: 0.361450100182; abs_value: 0.361450100182; index: living_standard; variable: education" role="graphics-symbol" aria-roledescription="circle" transform="translate(30,110)" d="M5.711,0A5.711,5.711,0,1,1,-5.711,0A5.711,5.711,0,1,1,5.711,0" fill="rgb(251, 197, 129)" stroke-width="2" opacity="0.9"/><path aria-label="value: −0.336080459123; abs_value: 0.336080459123; index: media_exposure; variable: education" role="graphics-symbol" aria-roledescription="circle" transform="translate(10,110)" d="M5.507,0A5.507,5.507,0,1,1,-5.507,0A5.507,5.507,0,1,1,5.507,0" fill="rgb(174, 211, 229)" stroke-width="2" opacity="0.9"/><path aria-label="value: −0.062199525177; abs_value: 0.062199525177; index: work; variable: education" role="graphics-symbol" aria-roledescription="circle" transform="translate(50,110)" d="M2.369,0A2.369,2.369,0,1,1,-2.369,0A2.369,2.369,0,1,1,2.369,0" fill="rgb(232, 237, 236)" stroke-width="2" opacity="0.9"/><path aria-label="value: −0.232973279271; abs_value: 0.232973279271; index: religion; variable: education" role="graphics-symbol" aria-roledescription="circle" transform="translate(70,110)" d="M4.585,0A4.585,4.585,0,1,1,-4.585,0A4.585,4.585,0,1,1,4.585,0" fill="rgb(201, 225, 237)" stroke-width="2" opacity="0.9"/><path aria-label="value: −0.193838608621; abs_value: 0.193838608621; index: children; variable: education" role="graphics-symbol" aria-roledescription="circle" transform="translate(90,110)" d="M4.183,0A4.183,4.183,0,1,1,-4.183,0A4.183,4.183,0,1,1,4.183,0" fill="rgb(211, 229, 239)" stroke-width="2" opacity="0.9"/><path aria-label="value: 0.618368692607; abs_value: 0.618368692607; index: spouse_education; variable: education" role="graphics-symbol" aria-roledescription="circle" transform="translate(110,110)" d="M7.47,0A7.47,7.47,0,1,1,-7.47,0A7.47,7.47,0,1,1,7.47,0" fill="rgb(229, 143, 44)" stroke-width="2" opacity="0.9"/><path aria-label="value: 0.133658334595; abs_value: 0.133658334595; index: media_exposure; variable: children" role="graphics-symbol" aria-roledescription="circle" transform="translate(10,70)" d="M3.473,0A3.473,3.473,0,1,1,-3.473,0A3.473,3.473,0,1,1,3.473,0" fill="rgb(249, 229, 202)" stroke-width="2" opacity="0.9"/><path aria-label="value: −0.00604604462927; abs_value: 0.00604604462927; index: living_standard; variable: children" role="graphics-symbol" aria-roledescription="circle" transform="translate(30,70)" d="M0.739,0A0.739,0.739,0,1,1,-0.739,0A0.739,0.739,0,1,1,0.739,0" fill="rgb(241, 240, 235)" stroke-width="2" opacity="0.9"/><path aria-label="value: 0.0973156009938; abs_value: 0.0973156009938; index: work; variable: children" role="graphics-symbol" aria-roledescription="circle" transform="translate(50,70)" d="M2.964,0A2.964,2.964,0,1,1,-2.964,0A2.964,2.964,0,1,1,2.964,0" fill="rgb(247, 232, 211)" stroke-width="2" opacity="0.9"/><path aria-label="value: 0.0739170905152; abs_value: 0.0739170905152; index: religion; variable: children" role="graphics-symbol" aria-roledescription="circle" transform="translate(70,70)" d="M2.583,0A2.583,2.583,0,1,1,-2.583,0A2.583,2.583,0,1,1,2.583,0" fill="rgb(246, 234, 217)" stroke-width="2" opacity="0.9"/><path aria-label="value: −0.0528787440143; abs_value: 0.0528787440143; index: spouse_education; variable: age" role="graphics-symbol" aria-roledescription="circle" transform="translate(110,130)" d="M2.185,0A2.185,2.185,0,1,1,-2.185,0A2.185,2.185,0,1,1,2.185,0" fill="rgb(234, 237, 236)" stroke-width="2" opacity="0.9"/><path aria-label="value: 0.113305995771; abs_value: 0.113305995771; index: media_exposure; variable: age" role="graphics-symbol" aria-roledescription="circle" transform="translate(10,130)" d="M3.198,0A3.198,3.198,0,1,1,-3.198,0A3.198,3.198,0,1,1,3.198,0" fill="rgb(248, 231, 207)" stroke-width="2" opacity="0.9"/><path aria-label="value: 0.184484968505; abs_value: 0.184484968505; index: living_standard; variable: age" role="graphics-symbol" aria-roledescription="circle" transform="translate(30,130)" d="M4.08,0A4.08,4.08,0,1,1,-4.08,0A4.08,4.08,0,1,1,4.08,0" fill="rgb(251, 225, 190)" stroke-width="2" opacity="0.9"/><path aria-label="value: −0.0398804894748; abs_value: 0.0398804894748; index: work; variable: age" role="graphics-symbol" aria-roledescription="circle" transform="translate(50,130)" d="M1.897,0A1.897,1.897,0,1,1,-1.897,0A1.897,1.897,0,1,1,1.897,0" fill="rgb(236, 238, 236)" stroke-width="2" opacity="0.9"/><path aria-label="value: −0.139542824936; abs_value: 0.139542824936; index: religion; variable: age" role="graphics-symbol" aria-roledescription="circle" transform="translate(70,130)" d="M3.549,0A3.549,3.549,0,1,1,-3.549,0A3.549,3.549,0,1,1,3.549,0" fill="rgb(220, 232, 238)" stroke-width="2" opacity="0.9"/><path aria-label="value: 0.540125890119; abs_value: 0.540125890119; index: children; variable: age" role="graphics-symbol" aria-roledescription="circle" transform="translate(90,130)" d="M6.982,0A6.982,6.982,0,1,1,-6.982,0A6.982,6.982,0,1,1,6.982,0" fill="rgb(238, 160, 68)" stroke-width="2" opacity="0.9"/><path aria-label="value: −0.048011374909; abs_value: 0.048011374909; index: education; variable: age" role="graphics-symbol" aria-roledescription="circle" transform="translate(130,130)" d="M2.082,0A2.082,2.082,0,1,1,-2.082,0A2.082,2.082,0,1,1,2.082,0" fill="rgb(234, 237, 236)" stroke-width="2" opacity="0.9"/></g><g class="mark-path role-mark concat_0_voronoi" role="graphics-symbol" aria-roledescription="path mark container"><path transform="translate(0,0)" d="M0,20L20,20L20,40L0,40Z" stroke-width="0.35"/><path transform="translate(0,0)" d="M80,0L40,40L20,40L20,20L40,0Z" stroke-width="0.35"/><path transform="translate(0,0)" d="M80,80L80,100L60,100L60,80Z" stroke-width="0.35"/><path transform="translate(0,0)" d="M140,60L100,100L80,100L80,80L140,20Z" stroke-width="0.35"/><path transform="translate(0,0)" d="M0,80L20,80L20,100L0,100Z" stroke-width="0.35"/><path transform="translate(0,0)" d="M40,100L20,100L20,80L40,80Z" stroke-width="0.35"/><path transform="translate(0,0)" d="M60,80L60,100L40,100L40,80Z" stroke-width="0.35"/><path transform="translate(0,0)" d="M0,40L20,40L20,60L0,60Z" stroke-width="0.35"/><path transform="translate(0,0)" d="M40,60L20,60L20,40L40,40Z" stroke-width="0.35"/><path transform="translate(0,0)" d="M120,0L60,60L40,60L40,40L80,0Z" stroke-width="0.35"/><path transform="translate(0,0)" d="M0,0L40,0L20,20L0,20Z" stroke-width="0.35"/><path transform="translate(0,0)" d="M40,120L20,120L20,100L40,100Z" stroke-width="0.35"/><path transform="translate(0,0)" d="M0,100L20,100L20,120L0,120Z" stroke-width="0.35"/><path transform="translate(0,0)" d="M60,100L60,120L40,120L40,100Z" stroke-width="0.35"/><path transform="translate(0,0)" d="M60,100L80,100L80,120L60,120Z" stroke-width="0.35"/><path transform="translate(0,0)" d="M80,100L100,100L100,120L80,120Z" stroke-width="0.35"/><path transform="translate(0,0)" d="M140,100L120,120L100,120L100,100L140,60Z" stroke-width="0.35"/><path transform="translate(0,0)" d="M0,60L20,60L20,80L0,80Z" stroke-width="0.35"/><path transform="translate(0,0)" d="M40,80L20,80L20,60L40,60Z" stroke-width="0.35"/><path transform="translate(0,0)" d="M60,80L40,80L40,60L60,60Z" stroke-width="0.35"/><path transform="translate(0,0)" d="M140,0L140,20L80,80L60,80L60,60L120,0Z" stroke-width="0.35"/><path transform="translate(0,0)" d="M100,140L100,120L120,120L120,140Z" stroke-width="0.35"/><path transform="translate(0,0)" d="M0,140L0,120L20,120L20,140Z" stroke-width="0.35"/><path transform="translate(0,0)" d="M20,140L20,120L40,120L40,140Z" stroke-width="0.35"/><path transform="translate(0,0)" d="M40,140L40,120L60,120L60,140Z" stroke-width="0.35"/><path transform="translate(0,0)" d="M60,140L60,120L80,120L80,140Z" stroke-width="0.35"/><path transform="translate(0,0)" d="M80,140L80,120L100,120L100,140Z" stroke-width="0.35"/><path transform="translate(0,0)" d="M140,140L120,140L120,120L140,100Z" stroke-width="0.35"/></g><g class="mark-group role-title"><g transform="translate(70,-17.7)"><path class="background" aria-hidden="true" d="M0,0h0v0h0Z" pointer-events="none"/><g><g class="mark-text role-title-text" role="graphics-symbol" aria-roledescription="title" aria-label="Title text 'Pearson correlations'" pointer-events="none"><text text-anchor="middle" transform="translate(0,10)" font-family="sans-serif" font-size="13px" font-weight="bold" fill="#000" opacity="1">Pearson correlations</text></g></g><path class="foreground" aria-hidden="true" d="" pointer-events="none" display="none"/></g></g></g><path class="foreground" aria-hidden="true" d="" display="none"/></g></g><g class="mark-group role-scope concat_1_group" role="graphics-object" aria-roledescription="group mark container"><g transform="translate(167,0)"><path class="background" aria-hidden="true" d="M0,0h140v140h-140Z" stroke="#ddd" stroke-width="0"/><g><g class="mark-group role-axis" role="graphics-symbol" aria-roledescription="axis" aria-label="X-axis for a discrete scale with 7 values: media_exposure, living_standard, work, religion, children, spouse_education, education"><g transform="translate(0.5,140.5)"><path class="background" aria-hidden="true" d="M0,0h0v0h0Z" pointer-events="none"/><g><g class="mark-rule role-axis-tick" pointer-events="none"><line transform="translate(10,0)" x2="0" y2="5" stroke="#888" stroke-width="1" opacity="1"/><line transform="translate(30,0)" x2="0" y2="5" stroke="#888" stroke-width="1" opacity="1"/><line transform="translate(50,0)" x2="0" y2="5" stroke="#888" stroke-width="1" opacity="1"/><line transform="translate(70,0)" x2="0" y2="5" stroke="#888" stroke-width="1" opacity="1"/><line transform="translate(90,0)" x2="0" y2="5" stroke="#888" stroke-width="1" opacity="1"/><line transform="translate(110,0)" x2="0" y2="5" stroke="#888" stroke-width="1" opacity="1"/><line transform="translate(130,0)" x2="0" y2="5" stroke="#888" stroke-width="1" opacity="1"/></g><g class="mark-text role-axis-label" pointer-events="none"><text text-anchor="end" transform="translate(10,7) rotate(270) translate(0,3)" font-family="sans-serif" font-size="10px" fill="#000" opacity="1">media_exposure</text><text text-anchor="end" transform="translate(30,7) rotate(270) translate(0,3)" font-family="sans-serif" font-size="10px" fill="#000" opacity="1">living_standard</text><text text-anchor="end" transform="translate(50,7) rotate(270) translate(0,3)" font-family="sans-serif" font-size="10px" fill="#000" opacity="1">work</text><text text-anchor="end" transform="translate(70,7) rotate(270) translate(0,3)" font-family="sans-serif" font-size="10px" fill="#000" opacity="1">religion</text><text text-anchor="end" transform="translate(90,7) rotate(270) translate(0,3)" font-family="sans-serif" font-size="10px" fill="#000" opacity="1">children</text><text text-anchor="end" transform="translate(110,7) rotate(270) translate(0,3)" font-family="sans-serif" font-size="10px" fill="#000" opacity="1">spouse_education</text><text text-anchor="end" transform="translate(130,7) rotate(270) translate(0,3)" font-family="sans-serif" font-size="10px" fill="#000" opacity="1">education</text></g><g class="mark-rule role-axis-domain" pointer-events="none"><line transform="translate(0,0)" x2="140" y2="0" stroke="#888" stroke-width="1" opacity="1"/></g></g><path class="foreground" aria-hidden="true" d="" pointer-events="none" display="none"/></g></g><g class="mark-group role-axis" role="graphics-symbol" aria-roledescription="axis" aria-label="Y-axis for a discrete scale with 7 values: living_standard, work, religion, children, spouse_education, education, age"><g transform="translate(0.5,0.5)"><path class="background" aria-hidden="true" d="M0,0h0v0h0Z" pointer-events="none"/><g><g class="mark-rule role-axis-tick" pointer-events="none"><line transform="translate(0,10)" x2="-5" y2="0" stroke="#888" stroke-width="1" opacity="1"/><line transform="translate(0,30)" x2="-5" y2="0" stroke="#888" stroke-width="1" opacity="1"/><line transform="translate(0,50)" x2="-5" y2="0" stroke="#888" stroke-width="1" opacity="1"/><line transform="translate(0,70)" x2="-5" y2="0" stroke="#888" stroke-width="1" opacity="1"/><line transform="translate(0,90)" x2="-5" y2="0" stroke="#888" stroke-width="1" opacity="1"/><line transform="translate(0,110)" x2="-5" y2="0" stroke="#888" stroke-width="1" opacity="1"/><line transform="translate(0,130)" x2="-5" y2="0" stroke="#888" stroke-width="1" opacity="1"/></g><g class="mark-rule role-axis-domain" pointer-events="none"><line transform="translate(0,0)" x2="0" y2="140" stroke="#888" stroke-width="1" opacity="1"/></g></g><path class="foreground" aria-hidden="true" d="" pointer-events="none" display="none"/></g></g><g class="mark-symbol role-mark concat_1_marks" role="graphics-object" aria-roledescription="symbol mark container"><path aria-label="value: 0.0018284974536; abs_value: 0.0018284974536; index: media_exposure; variable: work" role="graphics-symbol" aria-roledescription="circle" transform="translate(10,30)" d="M0.406,0A0.406,0.406,0,1,1,-0.406,0A0.406,0.406,0,1,1,0.406,0" fill="rgb(242, 240, 235)" stroke-width="2" opacity="0.9"/><path aria-label="value: −0.0751100126964; abs_value: 0.0751100126964; index: living_standard; variable: work" role="graphics-symbol" aria-roledescription="circle" transform="translate(30,30)" d="M2.604,0A2.604,2.604,0,1,1,-2.604,0A2.604,2.604,0,1,1,2.604,0" fill="rgb(230, 236, 237)" stroke-width="2" opacity="0.9"/><path aria-label="value: −0.191094932272; abs_value: 0.191094932272; index: religion; variable: spouse_education" role="graphics-symbol" aria-roledescription="circle" transform="translate(70,90)" d="M4.153,0A4.153,4.153,0,1,1,-4.153,0A4.153,4.153,0,1,1,4.153,0" fill="rgb(211, 229, 239)" stroke-width="2" opacity="0.9"/><path aria-label="value: −0.156408014261; abs_value: 0.156408014261; index: children; variable: spouse_education" role="graphics-symbol" aria-roledescription="circle" transform="translate(90,90)" d="M3.757,0A3.757,3.757,0,1,1,-3.757,0A3.757,3.757,0,1,1,3.757,0" fill="rgb(217, 231, 238)" stroke-width="2" opacity="0.9"/><path aria-label="value: −0.259525113205; abs_value: 0.259525113205; index: media_exposure; variable: spouse_education" role="graphics-symbol" aria-roledescription="circle" transform="translate(10,90)" d="M4.84,0A4.84,4.84,0,1,1,-4.84,0A4.84,4.84,0,1,1,4.84,0" fill="rgb(194, 221, 235)" stroke-width="2" opacity="0.9"/><path aria-label="value: 0.354652453549; abs_value: 0.354652453549; index: living_standard; variable: spouse_education" role="graphics-symbol" aria-roledescription="circle" transform="translate(30,90)" d="M5.658,0A5.658,5.658,0,1,1,-5.658,0A5.658,5.658,0,1,1,5.658,0" fill="rgb(251, 198, 132)" stroke-width="2" opacity="0.9"/><path aria-label="value: −0.00403525155494; abs_value: 0.00403525155494; index: work; variable: spouse_education" role="graphics-symbol" aria-roledescription="circle" transform="translate(50,90)" d="M0.603,0A0.603,0.603,0,1,1,-0.603,0A0.603,0.603,0,1,1,0.603,0" fill="rgb(241, 240, 235)" stroke-width="2" opacity="0.9"/><path aria-label="value: 0.0602434875547; abs_value: 0.0602434875547; index: media_exposure; variable: religion" role="graphics-symbol" aria-roledescription="circle" transform="translate(10,50)" d="M2.332,0A2.332,2.332,0,1,1,-2.332,0A2.332,2.332,0,1,1,2.332,0" fill="rgb(245, 235, 220)" stroke-width="2" opacity="0.9"/><path aria-label="value: −0.206724831427; abs_value: 0.206724831427; index: living_standard; variable: religion" role="graphics-symbol" aria-roledescription="circle" transform="translate(30,50)" d="M4.319,0A4.319,4.319,0,1,1,-4.319,0A4.319,4.319,0,1,1,4.319,0" fill="rgb(208, 228, 239)" stroke-width="2" opacity="0.9"/><path aria-label="value: 0.0698372190017; abs_value: 0.0698372190017; index: work; variable: religion" role="graphics-symbol" aria-roledescription="circle" transform="translate(50,50)" d="M2.511,0A2.511,2.511,0,1,1,-2.511,0A2.511,2.511,0,1,1,2.511,0" fill="rgb(245, 234, 218)" stroke-width="2" opacity="0.9"/><path aria-label="value: −0.233342222451; abs_value: 0.233342222451; index: media_exposure; variable: living_standard" role="graphics-symbol" aria-roledescription="circle" transform="translate(10,10)" d="M4.589,0A4.589,4.589,0,1,1,-4.589,0A4.589,4.589,0,1,1,4.589,0" fill="rgb(201, 224, 237)" stroke-width="2" opacity="0.9"/><path aria-label="value: 0.368841927341; abs_value: 0.368841927341; index: living_standard; variable: education" role="graphics-symbol" aria-roledescription="circle" transform="translate(30,110)" d="M5.77,0A5.77,5.77,0,1,1,-5.77,0A5.77,5.77,0,1,1,5.77,0" fill="rgb(251, 196, 127)" stroke-width="2" opacity="0.9"/><path aria-label="value: −0.304242988993; abs_value: 0.304242988993; index: media_exposure; variable: education" role="graphics-symbol" aria-roledescription="circle" transform="translate(10,110)" d="M5.24,0A5.24,5.24,0,1,1,-5.24,0A5.24,5.24,0,1,1,5.24,0" fill="rgb(182, 215, 232)" stroke-width="2" opacity="0.9"/><path aria-label="value: −0.0684578379043; abs_value: 0.0684578379043; index: work; variable: education" role="graphics-symbol" aria-roledescription="circle" transform="translate(50,110)" d="M2.486,0A2.486,2.486,0,1,1,-2.486,0A2.486,2.486,0,1,1,2.486,0" fill="rgb(231, 236, 236)" stroke-width="2" opacity="0.9"/><path aria-label="value: −0.237849186436; abs_value: 0.237849186436; index: religion; variable: education" role="graphics-symbol" aria-roledescription="circle" transform="translate(70,110)" d="M4.633,0A4.633,4.633,0,1,1,-4.633,0A4.633,4.633,0,1,1,4.633,0" fill="rgb(200, 224, 236)" stroke-width="2" opacity="0.9"/><path aria-label="value: −0.157907294513; abs_value: 0.157907294513; index: children; variable: education" role="graphics-symbol" aria-roledescription="circle" transform="translate(90,110)" d="M3.775,0A3.775,3.775,0,1,1,-3.775,0A3.775,3.775,0,1,1,3.775,0" fill="rgb(217, 231, 238)" stroke-width="2" opacity="0.9"/><path aria-label="value: 0.626504603282; abs_value: 0.626504603282; index: spouse_education; variable: education" role="graphics-symbol" aria-roledescription="circle" transform="translate(110,110)" d="M7.519,0A7.519,7.519,0,1,1,-7.519,0A7.519,7.519,0,1,1,7.519,0" fill="rgb(227, 141, 42)" stroke-width="2" opacity="0.9"/><path aria-label="value: 0.122382307569; abs_value: 0.122382307569; index: media_exposure; variable: children" role="graphics-symbol" aria-roledescription="circle" transform="translate(10,70)" d="M3.323,0A3.323,3.323,0,1,1,-3.323,0A3.323,3.323,0,1,1,3.323,0" fill="rgb(248, 230, 205)" stroke-width="2" opacity="0.9"/><path aria-label="value: 0.0162013340835; abs_value: 0.0162013340835; index: living_standard; variable: children" role="graphics-symbol" aria-roledescription="circle" transform="translate(30,70)" d="M1.209,0A1.209,1.209,0,1,1,-1.209,0A1.209,1.209,0,1,1,1.209,0" fill="rgb(243, 239, 231)" stroke-width="2" opacity="0.9"/><path aria-label="value: 0.0992754937848; abs_value: 0.0992754937848; index: work; variable: children" role="graphics-symbol" aria-roledescription="circle" transform="translate(50,70)" d="M2.993,0A2.993,2.993,0,1,1,-2.993,0A2.993,2.993,0,1,1,2.993,0" fill="rgb(247, 232, 211)" stroke-width="2" opacity="0.9"/><path aria-label="value: 0.0491292443649; abs_value: 0.0491292443649; index: religion; variable: children" role="graphics-symbol" aria-roledescription="circle" transform="translate(70,70)" d="M2.106,0A2.106,2.106,0,1,1,-2.106,0A2.106,2.106,0,1,1,2.106,0" fill="rgb(244, 236, 223)" stroke-width="2" opacity="0.9"/><path aria-label="value: −0.0176975643885; abs_value: 0.0176975643885; index: spouse_education; variable: age" role="graphics-symbol" aria-roledescription="circle" transform="translate(110,130)" d="M1.264,0A1.264,1.264,0,1,1,-1.264,0A1.264,1.264,0,1,1,1.264,0" fill="rgb(239, 239, 235)" stroke-width="2" opacity="0.9"/><path aria-label="value: 0.108480028006; abs_value: 0.108480028006; index: media_exposure; variable: age" role="graphics-symbol" aria-roledescription="circle" transform="translate(10,130)" d="M3.129,0A3.129,3.129,0,1,1,-3.129,0A3.129,3.129,0,1,1,3.129,0" fill="rgb(247, 231, 208)" stroke-width="2" opacity="0.9"/><path aria-label="value: 0.195464627019; abs_value: 0.195464627019; index: living_standard; variable: age" role="graphics-symbol" aria-roledescription="circle" transform="translate(30,130)" d="M4.2,0A4.2,4.2,0,1,1,-4.2,0A4.2,4.2,0,1,1,4.2,0" fill="rgb(252, 224, 187)" stroke-width="2" opacity="0.9"/><path aria-label="value: −0.0492788223283; abs_value: 0.0492788223283; index: work; variable: age" role="graphics-symbol" aria-roledescription="circle" transform="translate(50,130)" d="M2.109,0A2.109,2.109,0,1,1,-2.109,0A2.109,2.109,0,1,1,2.109,0" fill="rgb(234, 237, 236)" stroke-width="2" opacity="0.9"/><path aria-label="value: −0.152171082033; abs_value: 0.152171082033; index: religion; variable: age" role="graphics-symbol" aria-roledescription="circle" transform="translate(70,130)" d="M3.706,0A3.706,3.706,0,1,1,-3.706,0A3.706,3.706,0,1,1,3.706,0" fill="rgb(218, 232, 238)" stroke-width="2" opacity="0.9"/><path aria-label="value: 0.556173025969; abs_value: 0.556173025969; index: children; variable: age" role="graphics-symbol" aria-roledescription="circle" transform="translate(90,130)" d="M7.085,0A7.085,7.085,0,1,1,-7.085,0A7.085,7.085,0,1,1,7.085,0" fill="rgb(236, 157, 62)" stroke-width="2" opacity="0.9"/><path aria-label="value: −0.00589482822797; abs_value: 0.00589482822797; index: education; variable: age" role="graphics-symbol" aria-roledescription="circle" transform="translate(130,130)" d="M0.729,0A0.729,0.729,0,1,1,-0.729,0A0.729,0.729,0,1,1,0.729,0" fill="rgb(241, 240, 235)" stroke-width="2" opacity="0.9"/></g><g class="mark-path role-mark concat_1_voronoi" role="graphics-symbol" aria-roledescription="path mark container"><path transform="translate(0,0)" d="M0,20L20,20L20,40L0,40Z" stroke-width="0.35"/><path transform="translate(0,0)" d="M80,0L40,40L20,40L20,20L40,0Z" stroke-width="0.35"/><path transform="translate(0,0)" d="M80,80L80,100L60,100L60,80Z" stroke-width="0.35"/><path transform="translate(0,0)" d="M140,60L100,100L80,100L80,80L140,20Z" stroke-width="0.35"/><path transform="translate(0,0)" d="M0,80L20,80L20,100L0,100Z" stroke-width="0.35"/><path transform="translate(0,0)" d="M40,100L20,100L20,80L40,80Z" stroke-width="0.35"/><path transform="translate(0,0)" d="M60,80L60,100L40,100L40,80Z" stroke-width="0.35"/><path transform="translate(0,0)" d="M0,40L20,40L20,60L0,60Z" stroke-width="0.35"/><path transform="translate(0,0)" d="M40,60L20,60L20,40L40,40Z" stroke-width="0.35"/><path transform="translate(0,0)" d="M120,0L60,60L40,60L40,40L80,0Z" stroke-width="0.35"/><path transform="translate(0,0)" d="M0,0L40,0L20,20L0,20Z" stroke-width="0.35"/><path transform="translate(0,0)" d="M40,120L20,120L20,100L40,100Z" stroke-width="0.35"/><path transform="translate(0,0)" d="M0,100L20,100L20,120L0,120Z" stroke-width="0.35"/><path transform="translate(0,0)" d="M60,100L60,120L40,120L40,100Z" stroke-width="0.35"/><path transform="translate(0,0)" d="M60,100L80,100L80,120L60,120Z" stroke-width="0.35"/><path transform="translate(0,0)" d="M80,100L100,100L100,120L80,120Z" stroke-width="0.35"/><path transform="translate(0,0)" d="M140,100L120,120L100,120L100,100L140,60Z" stroke-width="0.35"/><path transform="translate(0,0)" d="M0,60L20,60L20,80L0,80Z" stroke-width="0.35"/><path transform="translate(0,0)" d="M40,80L20,80L20,60L40,60Z" stroke-width="0.35"/><path transform="translate(0,0)" d="M60,80L40,80L40,60L60,60Z" stroke-width="0.35"/><path transform="translate(0,0)" d="M140,0L140,20L80,80L60,80L60,60L120,0Z" stroke-width="0.35"/><path transform="translate(0,0)" d="M100,140L100,120L120,120L120,140Z" stroke-width="0.35"/><path transform="translate(0,0)" d="M0,140L0,120L20,120L20,140Z" stroke-width="0.35"/><path transform="translate(0,0)" d="M20,140L20,120L40,120L40,140Z" stroke-width="0.35"/><path transform="translate(0,0)" d="M40,140L40,120L60,120L60,140Z" stroke-width="0.35"/><path transform="translate(0,0)" d="M60,140L60,120L80,120L80,140Z" stroke-width="0.35"/><path transform="translate(0,0)" d="M80,140L80,120L100,120L100,140Z" stroke-width="0.35"/><path transform="translate(0,0)" d="M140,140L120,140L120,120L140,100Z" stroke-width="0.35"/></g><g class="mark-group role-title"><g transform="translate(70,-17.7)"><path class="background" aria-hidden="true" d="M0,0h0v0h0Z" pointer-events="none"/><g><g class="mark-text role-title-text" role="graphics-symbol" aria-roledescription="title" aria-label="Title text 'Spearman correlations'" pointer-events="none"><text text-anchor="middle" transform="translate(0,10)" font-family="sans-serif" font-size="13px" font-weight="bold" fill="#000" opacity="1">Spearman correlations</text></g></g><path class="foreground" aria-hidden="true" d="" pointer-events="none" display="none"/></g></g></g><path class="foreground" aria-hidden="true" d="" display="none"/></g></g><g class="mark-group role-legend" role="graphics-symbol" aria-roledescription="legend" aria-label="Gradient legend for fill color with values from −1.0 to 1.0"><g transform="translate(326,0)"><path class="background" aria-hidden="true" d="M0,0h30v140h-30Z" pointer-events="none"/><g><g class="mark-group role-legend-entry"><g transform="translate(0,0)"><path class="background" aria-hidden="true" d="M0,0h0v0h0Z" pointer-events="none"/><g><g class="mark-rect role-legend-gradient" pointer-events="none"><path d="M0,0h16v140h-16Z" fill="url(#gradient_0)" stroke="#ddd" stroke-width="0" opacity="0.9"/></g><g class="mark-text role-legend-label" pointer-events="none"><text text-anchor="start" transform="translate(18,138)" font-family="sans-serif" font-size="10px" fill="#000" opacity="1">−1</text><text text-anchor="start" transform="translate(18,73)" font-family="sans-serif" font-size="10px" fill="#000" opacity="1">0</text><text text-anchor="start" transform="translate(18,8)" font-family="sans-serif" font-size="10px" fill="#000" opacity="1">1</text></g></g><path class="foreground" aria-hidden="true" d="" pointer-events="none" display="none"/></g></g></g><path class="foreground" aria-hidden="true" d="" pointer-events="none" display="none"/></g></g></g><path class="foreground" aria-hidden="true" d="" display="none"/></g></g></g><defs><linearGradient id="gradient_0" x1="0" x2="0" y1="1" y2="0"><stop offset="0" stop-color="rgb(19, 75, 133)"/><stop offset="0.04999999999999999" stop-color="rgb(33, 98, 156)"/><stop offset="0.09999999999999998" stop-color="rgb(47, 120, 179)"/><stop offset="0.15000000000000002" stop-color="rgb(70, 141, 191)"/><stop offset="0.2" stop-color="rgb(93, 162, 203)"/><stop offset="0.25" stop-color="rgb(125, 182, 214)"/><stop offset="0.3" stop-color="rgb(157, 202, 225)"/><stop offset="0.35" stop-color="rgb(184, 216, 232)"/><stop offset="0.4" stop-color="rgb(210, 229, 239)"/><stop offset="0.45" stop-color="rgb(226, 235, 237)"/><stop offset="0.5" stop-color="rgb(242, 240, 235)"/><stop offset="0.55" stop-color="rgb(247, 232, 211)"/><stop offset="0.6" stop-color="rgb(252, 224, 186)"/><stop offset="0.65" stop-color="rgb(252, 208, 151)"/><stop offset="0.7" stop-color="rgb(251, 191, 116)"/><stop offset="0.75" stop-color="rgb(242, 169, 82)"/><stop offset="0.8" stop-color="rgb(232, 147, 47)"/><stop offset="0.85" stop-color="rgb(215, 126, 30)"/><stop offset="0.9" stop-color="rgb(197, 105, 13)"/><stop offset="0.95" stop-color="rgb(175, 90, 10)"/><stop offset="1" stop-color="rgb(153, 74, 7)"/></linearGradient></defs></svg>